<svg width="40" height="40" viewBox="0 0 40 40" fill="none" xmlns="http://www.w3.org/2000/svg">
<path d="M0 6C0 2.68629 2.68629 0 6 0H34C37.3137 0 40 2.68629 40 6V34C40 37.3137 37.3137 40 34 40H6C2.68629 40 0 37.3137 0 34V6Z" fill="#F1F4F3"/>
<path d="M6.76295 26.6V12.7818H15.7502V14.8802H9.26615V18.6316H15.2846V20.7299H9.26615V24.5016H15.8041V26.6H6.76295ZM18.304 12.7818H21.3672L25.4694 22.7946H25.6314L29.7337 12.7818H32.7969V26.6H30.3949V17.1067H30.2667L26.4478 26.5595H24.653L20.8341 17.0865H20.706V26.6H18.304V12.7818Z" fill="#0C4A6E"/>
</svg>
